<svg class="icon" width="32px" height="32px" version="1.1" viewBox="0 0 1024 1024" xmlns="http://www.w3.org/2000/svg">
 <g transform="matrix(1.8822 0 0 1.8822 32.269 37.944)"></g>
 <style type="text/css">.st0{fill:#FFFFFF;}</style>
 <style type="text/css">.st0{fill:#FFFFFF;}</style>
 <g transform="matrix(2 0 0 2 1.9037e-6 1.9037e-6)"></g>
 <g transform="matrix(.81127 0 0 .81127 96.632 91.806)">
  <path d="m352 576h320q32 0 32 32t-32 32h-320q-32 0-32-32t32-32zm32-192h256q32 0 32 32t-32 32h-256q-32 0-32-32t32-32zm-209.28 471.68 135.3-45.12 23.68 11.84c54.4 27.136 114.88 41.6 178.3 41.6 211.84 0 384-166.78 384-352s-172.16-352-384-352-384 166.78-384 352c0 69.12 24.96 139.26 70.848 199.23l22.08 28.8-46.272 115.58zm-45.248 82.56a32 32 0 0 1-39.872-42.24l58.368-145.92c-53.248-69.76-83.968-153.22-83.968-238.08 0-212.1 192-416 448-416s448 203.9 448 416-192 416-448 416a461.06 461.06 0 0 1-206.91-48.384l-175.62 58.56zm782.07-1051.4h-799.15c-127.87 0-231.51 103.65-231.51 231.51v799.2c0 127.87 103.65 231.51 231.51 231.51h799.15c127.87 0 231.57-103.65 231.57-231.51v-799.2c0-127.86-103.69-231.51-231.57-231.51zm126.38 1030.7c0 69.76-56.591 126.33-126.38 126.33h-799.15c-69.775 0-126.33-56.551-126.33-126.33v-799.2c0-69.775 56.551-126.33 126.33-126.33h799.15c69.79 0 126.38 56.566 126.38 126.33z"/>
 </g>
</svg>
