<svg class="icon" width="32px" height="32px" version="1.1" viewBox="0 0 1024 1024" xmlns="http://www.w3.org/2000/svg">
 <g transform="matrix(1.8822 0 0 1.8822 32.269 37.944)"></g>
 <style type="text/css">.st0{fill:#FFFFFF;}</style>
 <style type="text/css">.st0{fill:#FFFFFF;}</style>
 <g transform="matrix(1.9436 0 0 1.9436 14.445 14.445)"></g>
 <g transform="matrix(11.496 0 0 11.496 167.13 167.13)">
  <path d="m59 28h-1v-9h-8v9h-17v-3h12.658c1.291 0 2.342-1.051 2.342-2.342v-20.316c0-1.291-1.051-2.342-2.342-2.342h-31.316c-1.291 0-2.342 1.051-2.342 2.342v20.316c0 1.291 1.051 2.342 2.342 2.342h12.658v3h-26c-0.553 0-1 0.447-1 1v4c0 0.553 0.447 1 1 1h1v25c0 0.553 0.447 1 1 1h2.513c0.526 0 0.963-0.408 0.998-0.934l1.671-25.066h43.637l1.671 25.066c0.034 0.526 0.471 0.934 0.997 0.934h2.513c0.553 0 1-0.447 1-1v-25h1c0.553 0 1-0.447 1-1v-4c0-0.553-0.447-1-1-1zm-4-7h1v7h-1zm-3 0h1v7h-1zm-38-18.658c0-0.189 0.153-0.342 0.342-0.342h31.316c0.189 0 0.342 0.153 0.342 0.342v16.658h-32zm0.342 20.658c-0.189 0-0.342-0.153-0.342-0.342v-1.658h32v1.658c0 0.189-0.153 0.342-0.342 0.342h-18.658zm14.658 2h2v3h-2zm29 7h-1c-0.553 0-1 0.447-1 1v25h-0.577l-1.671-25.066c-0.035-0.526-0.472-0.934-0.998-0.934h-45.508c-0.526 0-0.963 0.408-0.998 0.934l-1.671 25.066h-0.577v-25c0-0.553-0.447-1-1-1h-1v-2h56zm-0.59935-45.281h-54.805c-8.769 0-15.877 7.1079-15.877 15.877v54.809c0 8.7692 7.1079 15.877 15.877 15.877h54.805c8.7695 0 15.881-7.1083 15.881-15.877v-54.809c0-8.7687-7.1112-15.877-15.881-15.877zm8.6671 70.686c0 4.7841-3.881 8.6635-8.6671 8.6635h-54.805c-4.7851 0-8.6635-3.8782-8.6635-8.6635v-54.809c0-4.7851 3.8782-8.6635 8.6635-8.6635h54.805c4.7861 0 8.6671 3.8793 8.6671 8.6635z"/>
 </g>
</svg>
