<svg class="icon" width="32px" height="32px" version="1.1" viewBox="0 0 1024 1024" xmlns="http://www.w3.org/2000/svg">
  <path d="m13.905 6.4396c1.8643 0.36762 3.315 1.8366 3.6591 3.7054m-3.6591-7.4109c3.8898 0.40986 6.9717 3.4687 7.4109 7.3553m0 6.4845v2.7791c0 1.0232-0.82949 1.8527-1.8527 1.8527h-0.17601c-2.8506-0.30974-5.5887-1.2838-7.9945-2.8439-2.2379-1.4227-4.1354-3.3203-5.5582-5.5582-1.5804-2.4192-2.5675-5.1774-2.881-8.0501-0.096538-1.0213 0.65512-1.9266 1.6767-2.0195h2.9458c0.92994-0.0091524 1.7226 0.67251 1.8527 1.5933 0.11853 0.88913 0.33603 1.7622 0.64845 2.6031 0.2545 0.67705 0.091724 1.4403-0.41686 1.9546l-1.1765 1.1765c1.3187 2.3192 3.239 4.2394 5.5582 5.5582l1.1765-1.1765c0.51431-0.50858 1.2776-0.67136 1.9546-0.41686 0.84083 0.31242 1.7139 0.52992 2.6031 0.64845 0.93151 0.13141 1.6167 0.94006 1.5933 1.8805zm-0.10242-19.03h-18.267c-2.9228 0-5.2919 2.3691-5.2919 5.2919v18.268c0 2.9228 2.3691 5.292 5.2919 5.292h18.267c2.923 0 5.2931-2.3692 5.2931-5.2919v-18.268c0-2.9227-2.3702-5.2919-5.2931-5.2919z" stroke-width="1.8527"/>
</svg>
