<svg class="icon" width="32px" height="32px" version="1.1" viewBox="0 0 1024 1024" xmlns="http://www.w3.org/2000/svg">
 <g transform="matrix(1.8822 0 0 1.8822 32.269 37.944)"></g>
 <style type="text/css">.st0{fill:#FFFFFF;}</style>
 <path d="m801.64 212.39h-579.61c-13.376 0-22.293 8.9171-22.293 22.293v401.27c0 13.376 8.9171 22.293 22.293 22.293h191.72l-57.961 171.65c-4.4585 11.146 2.2293 24.522 13.376 28.98 11.146 4.4585 24.522-2.2293 28.98-13.376l31.21-95.859h160.51l31.21 95.859c2.2293 8.9171 11.146 15.605 20.063 15.605 2.2293 0 4.4585 0 6.6878-2.2293 11.146-4.4585 17.834-15.605 13.376-28.98l-51.273-171.65h191.72c13.376 0 22.293-8.9171 22.293-22.293v-401.27c0-13.376-8.9171-22.293-22.293-22.293zm-225.16 490.44h-131.53l15.605-44.585h102.55zm242.68-664.89h-610.14c-97.625 0-176.76 79.132-176.76 176.76v610.18c0 97.627 79.132 176.76 176.76 176.76h610.14c97.631 0 176.8-79.136 176.8-176.76v-610.18c0-97.621-79.168-176.76-176.8-176.76zm96.49 786.94c0 53.261-43.206 96.451-96.49 96.451h-610.14c-53.272 0-96.451-43.176-96.451-96.451v-610.18c0-53.273 43.176-96.451 96.451-96.451h610.14c53.284 0 96.49 43.188 96.49 96.451z" stroke-width="22.293"/>
</svg>
