<svg class="icon" width="32px" height="32px" version="1.1" viewBox="0 0 1024 1024" xmlns="http://www.w3.org/2000/svg">
 <g transform="matrix(1.8822 0 0 1.8822 32.269 37.944)"></g>
 <style type="text/css">.st0{fill:#FFFFFF;}</style>
 <g transform="matrix(1.9687 0 0 1.9687 8.0251 8.0251)"></g>
 <style type="text/css">.st0{fill:#FFFFFF;}</style>
 <g transform="matrix(21.562 0 0 21.562 -6065.2 -13677)">
  <path d="m312.46 673.33h-13.584a1 1 0 1 1 0-2h13.584a1 1 0 0 1 0 2zm-8.424-7.5h2v6.5h-2zm13.835-21.047a0.942 0.942 0 0 1 0.942 0.942v18.357a0.943 0.943 0 0 1-0.942 0.942h-25.668a0.943 0.943 0 0 1-0.942-0.942v-18.357a0.942 0.942 0 0 1 0.942-0.942h25.671m0-2h-25.671a2.942 2.942 0 0 0-2.942 2.942v18.357a2.942 2.942 0 0 0 2.942 2.942h25.671a2.942 2.942 0 0 0 2.942-2.942v-18.357a2.942 2.942 0 0 0-2.942-2.942zm1.9617-8.0998h-29.596c-4.7356 0-8.5741 3.8385-8.5741 8.5741v29.598c0 4.7356 3.8385 8.5742 8.5741 8.5742h29.596c4.7358 0 8.5761-3.8387 8.5761-8.5741v-29.598c0-4.7354-3.8402-8.5741-8.5761-8.5741zm4.6805 38.173c0 2.5836-2.0958 4.6786-4.6805 4.6786h-29.596c-2.5841 0-4.6786-2.0944-4.6786-4.6786v-29.598c0-2.5841 2.0944-4.6786 4.6786-4.6786h29.596c2.5847 0 4.6805 2.0949 4.6805 4.6786z"/>
 </g>
</svg>
