<?xml version="1.0" encoding="UTF-8" standalone="no"?>
<svg
   width="1024px"
   height="1024px"
   viewBox="0 0 1024 1024"
   class="icon"
   version="1.1"
   id="svg19"
   sodipodi:docname="kitchen.svg"
   inkscape:version="1.1.1 (3bf5ae0d25, 2021-09-20)"
   xmlns:inkscape="http://www.inkscape.org/namespaces/inkscape"
   xmlns:sodipodi="http://sodipodi.sourceforge.net/DTD/sodipodi-0.dtd"
   xmlns="http://www.w3.org/2000/svg"
   xmlns:svg="http://www.w3.org/2000/svg">
  <defs
     id="defs23" />
  <sodipodi:namedview
     id="namedview21"
     pagecolor="#ffffff"
     bordercolor="#666666"
     borderopacity="1.0"
     inkscape:pageshadow="2"
     inkscape:pageopacity="0.0"
     inkscape:pagecheckerboard="0"
     showgrid="false"
     inkscape:zoom="0.44056067"
     inkscape:cx="-506.17319"
     inkscape:cy="356.36408"
     inkscape:window-width="2880"
     inkscape:window-height="1514"
     inkscape:window-x="2869"
     inkscape:window-y="-11"
     inkscape:window-maximized="1"
     inkscape:current-layer="svg19" />
  <g
     id="g150"
     transform="matrix(1.882221,0,0,1.882221,32.269038,37.943624)">
    <g
       id="g148" />
  </g>
  <path
     id="path244"
     style="fill:#000000;stroke-width:33.4947"
     class="cls-1"
     d="M 408.74893,362.43765 A 33.430814,33.558434 0 0 1 375.31812,328.87921 V 241.96288 L 351.58224,218.47197 A 33.567601,33.695742 0 1 1 399.054,170.81901 l 33.43081,33.55842 a 33.430814,33.558434 0 0 1 9.69494,23.82649 v 100.67529 a 33.430814,33.558434 0 0 1 -33.43082,33.55844 z M 509.04138,865.81417 H 275.02567 a 33.430814,33.558434 0 0 1 -33.4308,-29.19585 L 174.73324,333.24181 a 33.430814,33.558434 0 0 1 8.0234,-26.51116 33.430814,33.558434 0 0 1 25.4074,-11.40988 h 367.73897 a 33.430814,33.558434 0 0 1 25.40742,11.40988 33.430814,33.558434 0 0 1 7.68908,26.84674 l -9.69494,67.11685 a 33.430814,33.558434 0 0 1 -37.77682,28.86027 33.430814,33.558434 0 0 1 -28.41619,-37.92103 l 4.34601,-29.19583 H 246.27518 l 58.16962,436.25964 h 204.59658 a 33.43082,33.55844 0 0 1 0,67.11688 z m 204.26227,0 h -185.541 A 145.08973,145.64361 0 0 1 382.6729,720.50614 v -74.8353 a 33.430815,33.558435 0 0 1 66.86163,0 v 74.8353 a 78.228103,78.526736 0 0 0 78.22812,78.19115 h 185.541 a 78.228103,78.526736 0 0 0 66.86163,-39.26336 33.545953,33.674012 0 0 1 58.16961,33.55842 146.09265,146.65035 0 0 1 -125.03124,72.82182 z M 824.62826,698.02199 H 629.058 a 33.430818,33.558438 0 0 1 0,-67.11687 h 157.79344 c -20.05849,-73.15738 -106.30999,-100.6753 -167.15408,-100.6753 -60.84407,0 -146.09265,27.51792 -167.15406,100.6753 h 41.4542 a 33.430818,33.558438 0 0 1 0,67.11687 H 416.10373 A 33.430814,33.558434 0 0 1 382.6729,664.46356 c 0,-132.22023 119.6823,-201.35061 237.69308,-201.35061 118.01078,0 237.69308,69.13038 237.69308,201.35061 a 33.430814,33.558434 0 0 1 -33.4308,33.55843 z M 819.16729,37.943624 H 209.02653 c -97.62516,0 -176.757492,79.132336 -176.757492,176.757496 V 824.8814 c 0,97.62704 79.132332,176.7594 176.757492,176.7594 h 610.14076 c 97.6308,0 176.7989,-79.13612 176.7989,-176.75752 V 214.70112 c 0,-97.6214 -79.1681,-176.757496 -176.7989,-176.757496 z m 96.49018,786.939656 c 0,53.26121 -43.20639,96.45065 -96.49018,96.45065 H 209.02653 c -53.2725,0 -96.45065,-43.17626 -96.45065,-96.45065 V 214.70112 c 0,-53.27251 43.17627,-96.45065 96.45065,-96.45065 h 610.14076 c 53.28379,0 96.49018,43.18756 96.49018,96.45065 z" />
</svg>
