<svg class="icon" width="32px" height="32px" version="1.1" viewBox="0 0 1024 1024" xmlns="http://www.w3.org/2000/svg">
 <g transform="matrix(-28.406 0 0 28.406 906.32 105.44)"></g>
 <g transform="matrix(-47.504 0 0 47.504 894.15 139.76)" fill="none" stroke="currentColor" stroke-linecap="round" stroke-linejoin="round" stroke-width="1.5">
  <path d="m4.75 1.75h6.5m-6.5 8h6.5m-5.5-7.5v4.5l-4 7.5h12.5l-4-7.5v-4.5m4.1715-4.3932h-12.844c-2.0551 0-3.7209 1.6658-3.7209 3.7209v12.845c0 2.0551 1.6658 3.7209 3.7209 3.7209h12.844c2.0552 0 3.7217-1.6659 3.7217-3.7209v-12.845c0-2.055-1.6665-3.7209-3.7217-3.7209z"/>
 </g>
 <g transform="matrix(1.8822 0 0 1.8822 32.269 37.944)"></g>
 <style type="text/css">.st0{fill:#FFFFFF;}</style>
</svg>
