<?xml version="1.0" encoding="UTF-8" standalone="no"?>
<svg
   width="32px"
   height="32px"
   viewBox="0 0 1024 1024"
   class="icon"
   version="1.1"
   id="svg19"
   sodipodi:docname="laboratory4.svg"
   inkscape:version="1.1.1 (3bf5ae0d25, 2021-09-20)"
   xmlns:inkscape="http://www.inkscape.org/namespaces/inkscape"
   xmlns:sodipodi="http://sodipodi.sourceforge.net/DTD/sodipodi-0.dtd"
   xmlns="http://www.w3.org/2000/svg"
   xmlns:svg="http://www.w3.org/2000/svg">
  <defs
     id="defs23" />
  <sodipodi:namedview
     id="namedview21"
     pagecolor="#ffffff"
     bordercolor="#666666"
     borderopacity="1.0"
     inkscape:pageshadow="2"
     inkscape:pageopacity="0.0"
     inkscape:pagecheckerboard="0"
     showgrid="false"
     inkscape:zoom="14.097941"
     inkscape:cx="26.244966"
     inkscape:cy="17.520288"
     inkscape:window-width="2880"
     inkscape:window-height="1514"
     inkscape:window-x="2869"
     inkscape:window-y="-11"
     inkscape:window-maximized="1"
     inkscape:current-layer="svg19"
     showguides="true"
     inkscape:guide-bbox="true" />
  <g
     id="g150"
     transform="matrix(1.882221,0,0,1.882221,32.269038,37.943624)">
    <g
       id="g148" />
  </g>
  <style
     type="text/css"
     id="style552">
	.st0{fill:#FFFFFF;}
</style>
  <style
     type="text/css"
     id="style6093">
	.st0{fill:#FFFFFF;}
</style>
  <g
     id="g18697"
     transform="matrix(1.9435737,0,0,1.9435737,14.445142,14.445142)">
    <g
       id="g18642">
	<g
   id="g18640">
		
	</g>

</g>
    <g
       id="g18644">
</g>
    <g
       id="g18646">
</g>
    <g
       id="g18648">
</g>
    <g
       id="g18650">
</g>
    <g
       id="g18652">
</g>
    <g
       id="g18654">
</g>
    <g
       id="g18656">
</g>
    <g
       id="g18658">
</g>
    <g
       id="g18660">
</g>
    <g
       id="g18662">
</g>
    <g
       id="g18664">
</g>
    <g
       id="g18666">
</g>
    <g
       id="g18668">
</g>
    <g
       id="g18670">
</g>
    <g
       id="g18672">
</g>
  </g>
  <g
     id="g19418"
     transform="matrix(1.4323883,0,0,1.4323883,148.17336,148.17336)">
    <g
       id="g19318">
	<g
   id="g19316">
		
	</g>

</g>
    <g
       id="g19324">
	<g
   id="g19322">
		
	</g>

</g>
    <g
       id="g19330">
	<g
   id="g19328">
		
	</g>

</g>
    <g
       id="g19336">
	<g
   id="g19334">
		
	</g>

</g>
    <g
       id="g19342">
	<g
   id="g19340">
		
	</g>

</g>
    <g
       id="g19348">
	<g
   id="g19346">
		<path
   id="circle19344"
   d="m 208.70001,262.20001 a 14.6,14.6 0 0 1 -14.6,14.6 14.6,14.6 0 0 1 -14.6,-14.6 14.6,14.6 0 0 1 14.6,-14.6 14.6,14.6 0 0 1 14.6,14.6 z M 268.6,186.7 a 14.6,14.6 0 0 1 -14.6,14.6 14.6,14.6 0 0 1 -14.6,-14.6 14.6,14.6 0 0 1 14.6,-14.6 14.6,14.6 0 0 1 14.6,14.6 z m 67.20001,231.69999 a 14.6,14.6 0 0 1 -14.6,14.6 14.6,14.6 0 0 1 -14.6,-14.6 14.6,14.6 0 0 1 14.6,-14.6 14.6,14.6 0 0 1 14.6,14.6 z M 328.49999,287 a 14.6,14.6 0 0 1 -14.6,14.6 14.6,14.6 0 0 1 -14.6,-14.6 14.6,14.6 0 0 1 14.6,-14.6 14.6,14.6 0 0 1 14.6,14.6 z m -119.79998,89.89999 a 14.6,14.6 0 0 1 -14.6,14.6 14.6,14.6 0 0 1 -14.6,-14.6 14.6,14.6 0 0 1 14.6,-14.6 14.6,14.6 0 0 1 14.6,14.6 z M 315.1,145.9 V 28.1 c 7.3,-0.6 13,-6.6 13,-14 C 328.1,6.3 321.8,0 314,0 H 194.1 C 186.3,0 180,6.3 180,14.1 c 0,7.4 5.7,13.4 13,14 V 145.9 C 114,172 59.8,246.2 59.8,330.2 c 0,75.6 44.5,144.9 113.3,176.5 1.8,0.8 3.9,1.3 5.9,1.3 h 150 c 2,0 4,-0.4 5.9,-1.3 C 403.7,475.1 448.2,405.8 448.2,330.2 448.2,246.2 394,172 315.1,145.9 Z M 210.7,170 c 6.2,-1.7 10.4,-7.2 10.4,-13.6 V 28.2 h 65.7 v 128.1 c 0,6.4 4.3,12 10.4,13.6 67.7,18.2 116.2,77.2 122.1,146.1 H 88.7 c 5.8,-68.8 54.4,-127.8 122,-146 z M 325.8,479.8 H 182.2 C 129.2,454.3 93.8,402.4 88.8,344.3 h 330.5 c -5,58 -40.5,110 -93.5,135.5 z M 473.9076,-93.360312 H 34.062582 c -70.377101,0 -127.422894,57.045793 -127.422894,127.422894 V 473.93609 c 0,70.37846 57.045793,127.42425 127.422894,127.42425 H 473.9076 c 70.38117,0 127.45274,-57.04851 127.45274,-127.42289 V 34.062582 c 0,-70.374388 -57.07157,-127.422894 -127.45274,-127.422894 z m 69.5589,567.297762 c 0,38.39552 -31.14709,69.53041 -69.5589,69.53041 H 34.062582 c -38.4036687,0 -69.53041,-31.12539 -69.53041,-69.53041 V 34.062582 c 0,-38.4036687 31.1253844,-69.53041 69.53041,-69.53041 H 473.9076 c 38.41181,0 69.5589,31.1335257 69.5589,69.53041 z" />

	</g>

</g>
    <g
       id="g19350">
</g>
    <g
       id="g19352">
</g>
    <g
       id="g19354">
</g>
    <g
       id="g19356">
</g>
    <g
       id="g19358">
</g>
    <g
       id="g19360">
</g>
    <g
       id="g19362">
</g>
    <g
       id="g19364">
</g>
    <g
       id="g19366">
</g>
    <g
       id="g19368">
</g>
    <g
       id="g19370">
</g>
    <g
       id="g19372">
</g>
    <g
       id="g19374">
</g>
    <g
       id="g19376">
</g>
    <g
       id="g19378">
</g>
  </g>
</svg>
