<svg class="icon" width="32px" height="32px" version="1.1" viewBox="0 0 1024 1024" xmlns="http://www.w3.org/2000/svg">
 <g transform="matrix(1.8822 0 0 1.8822 32.269 37.944)"></g>
 <style type="text/css">.st0{fill:#FFFFFF;}</style>
 <style type="text/css">.st0{fill:#FFFFFF;}</style>
 <g transform="matrix(1.9436 0 0 1.9436 14.445 14.445)"></g>
 <g transform="matrix(1.3942 0 0 1.3942 157.87 157.87)">
  <path d="m208.7 262.2a14.6 14.6 0 0 1-14.6 14.6 14.6 14.6 0 0 1-14.6-14.6 14.6 14.6 0 0 1 14.6-14.6 14.6 14.6 0 0 1 14.6 14.6zm59.9-75.5a14.6 14.6 0 0 1-14.6 14.6 14.6 14.6 0 0 1-14.6-14.6 14.6 14.6 0 0 1 14.6-14.6 14.6 14.6 0 0 1 14.6 14.6zm67.2 231.7a14.6 14.6 0 0 1-14.6 14.6 14.6 14.6 0 0 1-14.6-14.6 14.6 14.6 0 0 1 14.6-14.6 14.6 14.6 0 0 1 14.6 14.6zm-7.3-131.4a14.6 14.6 0 0 1-14.6 14.6 14.6 14.6 0 0 1-14.6-14.6 14.6 14.6 0 0 1 14.6-14.6 14.6 14.6 0 0 1 14.6 14.6zm-119.8 89.9a14.6 14.6 0 0 1-14.6 14.6 14.6 14.6 0 0 1-14.6-14.6 14.6 14.6 0 0 1 14.6-14.6 14.6 14.6 0 0 1 14.6 14.6zm106.4-231v-117.8c7.3-0.6 13-6.6 13-14 0-7.8-6.3-14.1-14.1-14.1h-119.9c-7.8 0-14.1 6.3-14.1 14.1 0 7.4 5.7 13.4 13 14v117.8c-79 26.1-133.2 100.3-133.2 184.3 0 75.6 44.5 144.9 113.3 176.5 1.8 0.8 3.9 1.3 5.9 1.3h150c2 0 4-0.4 5.9-1.3 68.8-31.6 113.3-100.9 113.3-176.5 0-84-54.2-158.2-133.1-184.3zm-104.4 24.1c6.2-1.7 10.4-7.2 10.4-13.6v-128.2h65.7v128.1c0 6.4 4.3 12 10.4 13.6 67.7 18.2 116.2 77.2 122.1 146.1h-330.6c5.8-68.8 54.4-127.8 122-146zm115.1 309.8h-143.6c-53-25.5-88.4-77.4-93.4-135.5h330.5c-5 58-40.5 110-93.5 135.5zm154.13-582.67h-451.89c-72.304 0-130.91 58.608-130.91 130.91v451.92c0 72.306 58.608 130.91 130.91 130.91h451.89c72.309 0 130.94-58.611 130.94-130.91v-451.92c0-72.302-58.635-130.91-130.94-130.91zm71.464 582.83c0 39.447-32 71.435-71.464 71.435h-451.89c-39.455 0-71.435-31.978-71.435-71.435v-451.92c0-39.455 31.978-71.435 71.435-71.435h451.89c39.464 0 71.464 31.986 71.464 71.435z"/>
 </g>
</svg>
