<svg class="icon" width="32px" height="32px" version="1.1" viewBox="0 0 1024 1024" xmlns="http://www.w3.org/2000/svg">
 <g transform="matrix(1.8822 0 0 1.8822 32.269 37.944)"></g>
 <style type="text/css">.st0{fill:#FFFFFF;}</style>
 <style type="text/css">.st0{fill:#FFFFFF;}</style>
 <g transform="matrix(2 0 0 2 1.9037e-6 1.9037e-6)"></g>
 <g transform="matrix(49.88 0 0 49.88 112.96 112.96)" fill="none" stroke="currentColor" stroke-linecap="round" stroke-linejoin="round" stroke-width="1.5">
  <path d="m11.75 11.75v2m1.5 0.5h-9c-0.75 0-1.5-0.5-1.5-1.5s0.75-1.5 1.5-1.5h9v-9.5h-9c-0.75 0-1.5 0.75-1.5 1.5v9.5m11.135-14.046h-11.771c-1.8834 0-3.4101 1.5267-3.4101 3.4101v11.772c0 1.8835 1.5267 3.4102 3.4101 3.4102h11.771c1.8836 0 3.4109-1.5267 3.4109-3.4101v-11.772c0-1.8834-1.5274-3.4101-3.4109-3.4101z"/>
 </g>
</svg>
