<svg class="icon" width="32px" height="32px" version="1.1" viewBox="0 0 1024 1024" xmlns="http://www.w3.org/2000/svg">
 <g transform="matrix(1.8822 0 0 1.8822 32.269 37.944)"></g>
 <style type="text/css">.st0{fill:#FFFFFF;}</style>
 <style type="text/css">.st0{fill:#FFFFFF;}</style>
 <g transform="matrix(1.9436 0 0 1.9436 14.445 14.445)"></g>
 <g transform="matrix(1.4117 0 0 1.4117 150.59 150.59)">
  <path transform="matrix(.9819 -.1896 .1896 .9819 -11.34 64.032)" d="m308.84 75.683h40.327v31.209h-40.327zm-110.44-37.96 40.854 7.8887-5.9166 30.641-40.854-7.8887zm-104.19-20.118 40.854 7.8887-5.9166 30.641-40.854-7.8887zm300.64-6.2032-100.72 0.68136 3.816-19.762-238.99-46.147-96.637 500.46 238.99 46.147 60.638-314.03 2.2203 328.49 134.03-0.90594zm-322.44 424.71-73.533-14.199 4.4045-22.81 73.532 14.199-4.4045 22.81zm10.321-53.451-73.533-14.199 74.483-385.73 73.532 14.199-74.483 385.73zm93.852 73.566-73.532-14.199 4.4044-22.81 73.532 14.199zm10.322-53.45-73.532-14.199 74.483-385.73 72.997 14.095 0.0183 2.7798zm105.33-359.47 71.615-0.48455 2.5612 378.72-71.613 0.91676zm2.7731 410.36 71.613-0.91677 0.15311 22.588-71.617 0.48417zm216.96-518.24-438.17-84.608c-70.109-13.538-137.91 32.317-151.45 102.43l-84.613 438.2c-13.538 70.11 32.317 137.91 102.43 151.45l438.17 84.608c70.113 13.538 137.94-32.314 151.48-102.42l84.614-438.2c13.537-70.106-32.343-137.92-102.46-151.45zm-39.831 578.51c-7.3857 38.249-44.403 63.274-82.668 55.885l-438.17-84.608c-38.257-7.3873-63.278-44.381-55.89-82.64l84.614-438.2c7.3873-38.257 44.381-63.278 82.64-55.89l438.17 84.608c38.265 7.3888 63.305 44.395 55.919 82.645z"/>
 </g>
</svg>
