<svg class="icon" width="32px" height="32px" version="1.1" viewBox="0 0 1024 1024" xmlns="http://www.w3.org/2000/svg">
 <g transform="matrix(1.8822 0 0 1.8822 32.269 37.944)"></g>
 <style type="text/css">.st0{fill:#FFFFFF;}</style>
 <g transform="matrix(1.9687 0 0 1.9687 8.0251 8.0251)"></g>
 <g transform="matrix(26.382 0 0 26.382 89.881 89.881)">
  <path d="m29.6 5.2c-0.3-0.2-0.6-0.3-0.9-0.1-4.3 1.4-8.7 0.3-12-2.8-0.4-0.4-1-0.4-1.4 0-3.3 3.1-7.7 4.2-12 2.8-0.3-0.2-0.6-0.1-0.9 0.1-0.2 0.2-0.4 0.5-0.4 0.8 0 8.1 1.8 13.4 4.5 17 2.6-2.6 5.9-4 9.5-4 3.5 0 6.9 1.5 9.5 4 2.7-3.7 4.5-9 4.5-17 0-0.3-0.2-0.6-0.4-0.8zm-13.6 11.8c-2.8 0-5-2.2-5-5s2.2-5 5-5 5 2.2 5 5-2.2 5-5 5zm0 4c-3.1 0-6 1.3-8.2 3.6 2.3 2.5 5.1 4.1 7.8 5.3 0.1 0.1 0.3 0.1 0.4 0.1s0.3 0 0.4-0.1c2.7-1.2 5.5-2.8 7.8-5.3-2.2-2.3-5.1-3.6-8.2-3.6zm12.094-24.103h-24.189c-3.8703 0-7.0075 3.1372-7.0075 7.0075v24.19c0 3.8704 3.1372 7.0075 7.0075 7.0075h24.189c3.8705 0 7.0091-3.1373 7.0091-7.0075v-24.19c0-3.8702-3.1386-7.0075-7.0091-7.0075zm3.8253 31.198c0 2.1115-1.7129 3.8237-3.8253 3.8237h-24.189c-2.112 0-3.8237-1.7117-3.8237-3.8237v-24.19c0-2.112 1.7117-3.8237 3.8237-3.8237h24.189c2.1124 0 3.8253 1.7122 3.8253 3.8237z"/>
 </g>
</svg>
