<svg class="icon" width="32px" height="32px" version="1.1" viewBox="0 0 1024 1024" xmlns="http://www.w3.org/2000/svg">
  <path d="m448 327.87v312.13h128v-312.13l-49.92-199.87h-28.16zm0-263.87h128l64 256v352a32 32 0 0 1-32 32h-192a32 32 0 0 1-32-32v-352zm-384 256h896v64h-896zm253.06-192-189.06 216.06v551.94h768v-551.94l-189.06-216.06zm-14.528-64h418.94a32 32 0 0 1 24.064 10.88l206.53 236.1a32 32 0 0 1 7.936 21.056v595.97a32 32 0 0 1-32 32h-832a32 32 0 0 1-32-32v-595.97a32 32 0 0 1 7.936-21.12l206.46-235.9a32 32 0 0 1 24.128-11.008zm622.54-204.48h-826.2c-132.2 0-239.35 107.15-239.35 239.35v826.25c0 132.2 107.15 239.35 239.35 239.35h826.2c132.2 0 239.41-107.16 239.41-239.35v-826.25c0-132.19-107.2-239.35-239.41-239.35zm130.66 1065.6c0 72.122-58.506 130.6-130.66 130.6h-826.2c-72.137 0-130.6-58.465-130.6-130.6v-826.25c0-72.137 58.465-130.6 130.6-130.6h826.2c72.152 0 130.66 58.481 130.66 130.6z"/>
</svg>
