<svg width="32mm" height="64mm" version="1.1" viewBox="0 0 210 297" xmlns="http://www.w3.org/2000/svg">
 <g transform="matrix(.1696 0 0 .1696 65.858 .5615)">
  <g id="a">
   <path d="m151.41-206.07-393.18 656.38a92.84 92.84 0 0 0 79.379 139.26h786.36a92.84 92.84 0 0 0 79.379-139.26l-393.18-656.38a92.84 92.84 0 0 0-158.76 0z"/>
   <path d="m176.75 635.51h108.07v1223.6h-108.07z"/>
   <path d="m337.37 1932.4a108.07 108.07 0 0 1-108.07 108.07 108.07 108.07 0 0 1-108.07-108.07 108.07 108.07 0 0 1 108.07-108.07 108.07 108.07 0 0 1 108.07 108.07z"/>
   <g fill="#fff">
    <path d="m225.32 96.963c26.748 0 48.479-21.706 48.479-48.481 0-26.783-21.731-48.482-48.479-48.482-26.779 0-48.492 21.699-48.492 48.482 0 26.775 21.713 48.481 48.492 48.481z"/>
    <path d="m300.23 371.69c-12.883 44.732-54.121 77.583-102.95 77.583-59.126 0-107.21-48.085-107.21-107.19 0-43.754 26.396-81.413 64.066-98.054v-45.444c-61.69 18.581-106.76 75.847-106.76 143.5 0 82.649 67.247 149.9 149.91 149.9 60.238 0 112.16-35.801 135.97-87.169l-16.926-33.255c-4.751 0.039-10.255 0.089-16.093 0.137z"/>
    <path id="b" d="m441.48 429.24-64.939-127.67c-4.847-9.553-14.645-15.566-25.363-15.566h-83.173v-18.966h71.582c7.148 0 13.156-3.736 17.037-9.118 2.522-3.506 4.316-7.579 4.316-12.236 0-11.789-9.549-21.351-21.353-21.351h-71.582v-64.328c0-17.692-13.118-42.704-42.689-42.704-23.584 0-42.703 19.122-42.703 42.704v139.37c0 24.058 19.503 43.561 43.562 43.561h107.55l57.024 112.12c5.011 9.875 15.011 15.573 25.389 15.573 4.35 0 8.761-0.994 12.883-3.104 14.034-7.118 19.608-24.268 12.46-38.282z"/>
   </g>
  </g>
 </g>
</svg>
