<svg width="32mm" height="64mm" version="1.1" viewBox="0 0 210 297" xmlns="http://www.w3.org/2000/svg">
 <g transform="matrix(.10351 0 0 .10351 466.42 .80497)">
  <path d="m394.89-260.51-644.2 1075.4a152.11 152.11 0 0 0 130.06 228.17h1288.4a152.11 152.11 0 0 0 130.06-228.17l-644.2-1075.4a152.11 152.11 0 0 0-260.11 0z"/>
  <path d="m436.41 1118.4h177.07v2004.9h-177.07z"/>
  <path d="m699.58 3243.2a177.07 177.07 0 0 1-177.07 177.07 177.07 177.07 0 0 1-177.07-177.07 177.07 177.07 0 0 1 177.07-177.07 177.07 177.07 0 0 1 177.07 177.07z"/>
  <path d="m352 768a32 32 0 1 0 0 64h448a32 32 0 0 0 32-32v-448a32 32 0 0 0-64 0v416z" fill="#fff"/>
  <path d="m777.34 822.66a32.04 32.04 0 0 0 45.312-45.312l-544-544a32.04 32.04 0 0 0-45.312 45.312z" fill="#fff"/>
 </g>
 <g stroke-width=".09727">
  <path d="m122.49 319.5a18.329 18.329 0 0 1-18.329 18.329 18.329 18.329 0 0 1-18.329-18.329 18.329 18.329 0 0 1 18.329-18.329 18.329 18.329 0 0 1 18.329 18.329zm-27.241-219.95h18.329v207.54h-18.329zm-4.2982-142.73-66.683 111.33a15.746 15.746 0 0 0 13.462 23.619h133.37a15.746 15.746 0 0 0 13.462-23.619l-66.683-111.33a15.746 15.746 0 0 0-26.925 0z"/>
  <path d="m79.171 61.8h40.464a3.1126 3.1126 0 1 1 0 6.2253h-43.577a3.1126 3.1126 0 0 1-3.1126-3.1126v-43.577a3.1126 3.1126 0 0 1 6.2253 0z" fill="#fff"/>
  <path d="m78.262 67.116a3.1166 3.1166 0 0 1-4.4075-4.4075l52.915-52.915a3.1166 3.1166 0 0 1 4.4075 4.4075z" fill="#fff"/>
 </g>
</svg>
