<svg width="32mm" height="64mm" version="1.1" viewBox="0 0 210 297" xmlns="http://www.w3.org/2000/svg">
 <g transform="matrix(.19343 0 0 .19343 55.203 -11.51)">
  <g id="a">
   <g transform="matrix(1.3033 0 0 1.3033 -63.408 -119.73)"></g>
   <path d="m312.96 1666.9a55.519 55.519 0 0 1-55.519 55.519 55.519 55.519 0 0 1-55.519-55.519 55.519 55.519 0 0 1 55.519-55.519 55.519 55.519 0 0 1 55.519 55.519zm-77.495-1030.1h43.952v978.52h-43.952zm335.39-462.02c0-22.632-18.245-41.078-41.078-41.078h-340.49l144.47-144.47c15.953-15.953 15.953-41.976 0-58.227l-38.784-38.785c-15.953-15.953-41.976-15.953-58.227 0l-280.67 280.66c-7.9763 7.9763-12.063 18.446-12.063 29.014 0 10.468 4.0872 21.038 12.063 29.014l280.67 280.67c15.953 15.951 41.976 15.951 58.227 0l38.784-38.785c15.953-15.953 15.953-41.976 0-58.227l-144.47-143.97h340.29c22.633 0 41.079-18.446 41.079-41.079z" stroke-width="3.2641"/>
  </g>
 </g>
</svg>
