<svg width="32mm" height="64mm" version="1.1" viewBox="0 0 210 297" xmlns="http://www.w3.org/2000/svg">
 <g transform="matrix(.19343 0 0 .19343 55.203 -11.51)">
  <g id="a">
   <g transform="matrix(22.888 0 0 22.888 -120.85 -153.96)">
    <g id="b">
     <path d="m3.085 18.654 17.528-2e-3 -4.738 4.739c-1.283 1.284-1.349 3.301-0.145 4.507 1.205 1.201 3.222 1.138 4.507-0.146l9.896-9.898c1.287-1.283 1.352-3.301 0.146-4.506-0.033-0.029-0.068-0.051-0.1-0.08-0.041-0.043-0.07-0.094-0.113-0.139l-9.764-9.762c-1.268-1.266-3.27-1.316-4.474-0.111-1.205 1.205-1.153 3.208 0.111 4.476l4.755 4.754h-17.609c-1.5474 1.1708-1.578 4.7809 0 6.168zm15.868 60.901a2.4257 2.4257 0 0 1-2.4257 2.4257 2.4257 2.4257 0 0 1-2.4257-2.4257 2.4257 2.4257 0 0 1 2.4257-2.4257 2.4257 2.4257 0 0 1 2.4257 2.4257zm-3.3859-45.005h1.9203v42.753h-1.9203z"/>
    </g>
   </g>
  </g>
 </g>
</svg>
