<svg width="32mm" height="64mm" version="1.1" viewBox="0 0 210 297" xmlns="http://www.w3.org/2000/svg">
 <g transform="matrix(.10351 0 0 .10351 50.661 -7.4216)">
  <path d="m394.89-260.51-644.2 1075.4a152.11 152.11 0 0 0 130.06 228.17h1288.4a152.11 152.11 0 0 0 130.06-228.17l-644.2-1075.4a152.11 152.11 0 0 0-260.11 0z"/>
  <path d="m436.41 1118.4h177.07v2004.9h-177.07z"/>
  <path d="m699.58 3243.2a177.07 177.07 0 0 1-177.07 177.07 177.07 177.07 0 0 1-177.07-177.07 177.07 177.07 0 0 1 177.07-177.07 177.07 177.07 0 0 1 177.07 177.07z"/>
  <path d="m352 768a32 32 0 1 0 0 64h448a32 32 0 0 0 32-32v-448a32 32 0 0 0-64 0v416z" fill="#fff"/>
  <path d="m777.34 822.66a32.04 32.04 0 0 0 45.312-45.312l-544-544a32.04 32.04 0 0 0-45.312 45.312z" fill="#fff"/>
 </g>
</svg>
