<svg width="32mm" height="64mm" version="1.1" viewBox="0 0 210 297" xmlns="http://www.w3.org/2000/svg">
 <path d="m124.22 322.96a18.207 18.207 0 0 1-18.207 18.207 18.207 18.207 0 0 1-18.207-18.207 18.207 18.207 0 0 1 18.207-18.207 18.207 18.207 0 0 1 18.207 18.207zm-27.06-218.49h18.207v206.15h-18.207zm-4.2696-141.78-66.24 110.58a15.641 15.641 0 0 0 13.373 23.462h132.48a15.641 15.641 0 0 0 13.373-23.462l-66.24-110.58a15.641 15.641 0 0 0-26.746 0zm-15.739 51.98a5.7697 5.7697 0 0 1 8.1583 0l20.401 20.401 20.401-20.401a5.7697 5.7697 0 0 1 8.1583 8.1583l-20.401 20.401 20.401 20.401a5.7697 5.7697 0 0 1-8.1583 8.1583l-20.401-20.401-20.401 20.401a5.7697 5.7697 0 0 1-8.1583-8.1583l20.401-20.401-20.401-20.401a5.7697 5.7697 0 0 1 0-8.1583z" stroke-width="2.0816"/>
</svg>
