<svg width="32mm" height="64mm" version="1.1" viewBox="0 0 210 297" xmlns="http://www.w3.org/2000/svg">
 <g transform="matrix(.17959 0 0 .17959 61.053 -7.3609)">
  <path d="m169.74-150.49-371.31 619.88a87.677 87.677 0 0 0 74.964 131.52h742.63a87.677 87.677 0 0 0 74.964-131.52l-371.31-619.88a87.677 87.677 0 0 0-149.93 0z"/>
  <path d="m193.68 644.28h102.06v1155.6h-102.06z"/>
  <path d="m345.37 1869a102.06 102.06 0 0 1-102.06 102.06 102.06 102.06 0 0 1-102.06-102.06 102.06 102.06 0 0 1 102.06-102.06 102.06 102.06 0 0 1 102.06 102.06z"/>
  <path d="m244.71 389.5c18.736 0 34.332-14.355 35.91-33.026l24.359-290.93c1.418-16.873-4.303-33.553-15.756-46.011-11.439-12.442-27.593-19.532-44.513-19.532s-33.074 7.09-44.514 19.532c-11.455 12.458-17.173 29.138-15.755 46.011l24.359 290.93c1.578 18.671 17.174 33.026 35.91 33.026z" fill="#fff"/>
  <path d="m244.71 410.91c-21.684 0-39.256 17.571-39.256 39.256 0 21.683 17.572 39.254 39.256 39.254s39.256-17.571 39.256-39.254c0-21.685-17.572-39.256-39.256-39.256z" fill="#fff"/>
 </g>
</svg>
