<svg class="icon" width="32px" height="32px" version="1.1" viewBox="0 0 1024 1024" xmlns="http://www.w3.org/2000/svg">
 <g transform="matrix(1.8822 0 0 1.8822 32.269 37.944)"></g>
 <style type="text/css">.st0{fill:#FFFFFF;}</style>
 <style type="text/css">.st0{fill:#FFFFFF;}</style>
 <g transform="matrix(1.9436 0 0 1.9436 14.445 14.445)"></g>
 <g transform="matrix(10.53 0 0 10.53 211.89 211.89)">
  <path d="m52 52h-6v-47.14c0-0.488-0.353-0.905-0.835-0.986l-23-3.86c-0.289-0.049-0.586 0.033-0.811 0.223s-0.354 0.469-0.354 0.763v1h-10c-0.553 0-1 0.448-1 1v50h-5v2h16v1c0 0.287 0.123 0.56 0.339 0.75 0.184 0.162 0.419 0.25 0.661 0.25 0.041 0 0.083-2e-3 0.125-8e-3l23-2.895c0.11-0.014 0.211-0.051 0.307-0.098h6.568zm-40 1v-49h9v49zm11 1v-51.818l21 3.524v46.518l-21 2.643zm2-27h3v2h-3zm3.5-45.563c-25.993 0-47.064 21.071-47.064 47.064a47.064 47.064 0 1 0 94.129-0.0049c0-25.988-21.076-47.059-47.064-47.059zm0 84.319a37.259 37.259 0 1 1 0-74.514 37.259 37.259 0 1 1 0 74.514z"/>
 </g>
</svg>
