<svg class="icon" width="32px" height="32px" version="1.1" viewBox="0 0 1024 1024" xmlns="http://www.w3.org/2000/svg">
 <g transform="matrix(1.8822 0 0 1.8822 32.269 37.944)"></g>
 <style type="text/css">.st0{fill:#FFFFFF;}</style>
 <style type="text/css">.st0{fill:#FFFFFF;}</style>
 <g transform="matrix(1.9436 0 0 1.9436 14.445 14.445)"></g>
 <g transform="matrix(1.1661 0 0 1.1661 226.3 226.3)">
  <path d="m342.6 251.6 57.2-110.4-43.2-21.4c-0.4 0-0.4-0.4-0.8-0.4l-50.6 124.4c14 7.8 32 8 37.4 7.8zm-97.6-38.1c-57.6-87.1 62.2-213.5 0-213.5-135.3 0-245 109.7-245 245s109.7 245 245 245 245-109.7 245-245c0-73.1-148.2 115.9-245-31.5zm-207.3 9.3c0-21.8 17.9-39.7 39.7-39.7s39.7 17.9 39.7 39.7-17.9 39.7-39.7 39.7-39.7-17.5-39.7-39.7zm74.3 163.8c-21.8 0-39.7-17.9-39.7-39.7s17.9-39.7 39.7-39.7c22.2 0 39.7 17.5 39.7 39.7s-17.5 39.7-39.7 39.7zm30.7-235.3c-21.8 0-39.7-17.9-39.7-39.7s17.9-39.7 39.7-39.7 39.7 17.9 39.7 39.7c0 22.2-17.5 39.7-39.7 39.7zm84 303.3c-21.8 0-39.7-17.9-39.7-39.7s17.9-39.7 39.7-39.7 39.7 17.9 39.7 39.7-17.9 39.7-39.7 39.7zm127.2-40c-21.8 0-39.7-17.9-39.7-39.7s17.9-39.7 39.7-39.7 39.7 17.9 39.7 39.7-17.9 39.7-39.7 39.7zm10.9-313.1 43.2 21.8c15.7-6.6 17.4-8.9 23.7-23.7 10.4-19.5 17-73.2-7.4-97.6-1.9-3.1-7-1.6-7 2.3 0.8 11.3-11.3 54.1-40.1 61.1-4.7 2.3-9.3 4.7-13.6 8.6-12.8 11.6-2.7 26.3 1.2 27.5zm-119.8-281.49c-234.72 0-425 190.28-425 425a425 425 0 1 0 850-0.0442c0-234.68-190.32-424.95-425-424.95zm0 761.41a336.46 336.46 0 1 1 0-672.87 336.46 336.46 0 1 1 0 672.87z"/>
 </g>
</svg>
