<svg class="icon" width="32px" height="32px" version="1.1" viewBox="0 0 1024 1024" xmlns="http://www.w3.org/2000/svg">
 <g transform="matrix(1.8822 0 0 1.8822 32.269 37.944)"></g>
 <style type="text/css">.st0{fill:#FFFFFF;}</style>
 <style type="text/css">.st0{fill:#FFFFFF;}</style>
 <g transform="matrix(1.9436 0 0 1.9436 14.445 14.445)"></g>
 <path d="m654.33 412.37v-42.7c0-79.3-63.033-142.33-142.33-142.33s-142.33 63.033-142.33 142.33v42.7c-56.933 10.167-101.67 58.967-101.67 119.97 0 67.1 54.9 122 122 122h101.67v122c0 12.2 8.1333 20.333 20.333 20.333s20.333-8.1333 20.333-20.333v-122h101.67c67.1 0 122-54.9 122-122 0-61-44.733-109.8-101.67-119.97zm-4.0667 111.83c-26.433 40.667-71.167 65.067-119.97 69.133v6.1 34.567c0 12.2-8.1333 20.333-20.333 20.333s-20.333-8.1333-20.333-20.333v-34.567c0-22.367-10.167-42.7-30.5-54.9-8.1333-8.1333-20.333-12.2-34.567-12.2h-34.567c-12.2 0-20.333-8.1333-20.333-20.333s8.1333-20.333 20.333-20.333h34.567c20.333 0 42.7 6.1 58.967 18.3 2.0333 2.0333 4.0667 4.0667 8.1333 6.1v-166.73c0-12.2 8.1333-20.333 20.333-20.333s20.333 8.1333 20.333 20.333v203.33c34.567-4.0667 65.067-22.367 85.4-50.833 6.1-10.167 18.3-12.2 28.467-6.1 8.1333 6.1 10.167 18.3 4.0667 28.467zm-138.27-507.78c-273.71 0-495.6 221.88-495.6 495.6a495.6 495.6 0 1 0 991.19-0.0516c0-273.66-221.93-495.54-495.6-495.54zm0 887.89a392.35 392.35 0 1 1 0-784.64 392.35 392.35 0 1 1 0 784.64z" stroke-width="20.333"/>
</svg>
