<svg class="icon" width="32px" height="32px" version="1.1" viewBox="0 0 1024 1024" xmlns="http://www.w3.org/2000/svg">
 <g transform="matrix(1.8822 0 0 1.8822 32.269 37.944)"></g>
 <style type="text/css">.st0{fill:#FFFFFF;}</style>
 <style type="text/css">.st0{fill:#FFFFFF;}</style>
 <g transform="matrix(1.9436 0 0 1.9436 14.445 14.445)"></g>
 <g transform="matrix(1.722 0 0 1.722 267.17 267.17)">
  <path d="m0 284.36h284.36v-284.36zm269.36-15h-233.14l233.14-233.14zm-127.18-414.97c-158.95 0-287.8 128.85-287.8 287.8a287.8 287.8 0 1 0 575.61-0.03c0-158.92-128.88-287.77-287.8-287.77zm0 515.62a227.84 227.84 0 1 1 0-455.66 227.84 227.84 0 1 1 0 455.66z"/>
 </g>
</svg>
