<svg class="icon" width="32px" height="32px" version="1.1" viewBox="0 0 1024 1024" xmlns="http://www.w3.org/2000/svg">
 <g transform="matrix(1.8822 0 0 1.8822 32.269 37.944)"></g>
 <style type="text/css">.st0{fill:#FFFFFF;}</style>
 <style type="text/css">.st0{fill:#FFFFFF;}</style>
 <g transform="matrix(1.9436 0 0 1.9436 14.445 14.445)"></g>
 <g transform="matrix(23.362 0 0 32 -2503.6 -231.87)">
  <g fill="#231f20">
   <path d="m143.2 28.424c-8.9245-0.47168-19.452-0.95746-28.193 0l-0.04-10.355c28.212 7.7805 2.0819 0.57523 28.212 7.7805zm-14.116-20.664c-11.716 0-21.214 6.9338-21.214 15.487a21.214 15.487 0 1 0 42.428-0.0016c0-8.5519-9.4999-15.486-21.214-15.486zm0 27.747a16.794 12.261 0 1 1 0-24.52 16.794 12.261 0 1 1 0 24.52z" stroke-width=".58818"/>
  </g>
 </g>
</svg>
