<svg class="icon" width="32px" height="32px" version="1.1" viewBox="0 0 1024 1024" xmlns="http://www.w3.org/2000/svg">
 <g transform="matrix(1.8822 0 0 1.8822 32.269 37.944)"></g>
 <style type="text/css">.st0{fill:#FFFFFF;}</style>
 <style type="text/css">.st0{fill:#FFFFFF;}</style>
 <g transform="matrix(1.9436 0 0 1.9436 14.445 14.445)"></g>
 <g transform="matrix(8.9313 0 0 8.9313 248.53 248.53)">
  <path d="m51.29 9c-1.263 0-2.29 1.027-2.29 2.289v5.422c0 0.159-0.13 0.289-0.29 0.289h-0.71v-16c0-0.047-0.02-0.087-0.027-0.132-9e-3 -0.069-0.017-0.135-0.041-0.202-0.024-0.068-0.061-0.125-0.098-0.185-0.023-0.038-0.033-0.081-0.062-0.116-0.01-0.013-0.026-0.018-0.037-0.03-0.047-0.052-0.104-0.09-0.161-0.132-0.051-0.037-0.097-0.077-0.153-0.103-0.051-0.024-0.106-0.033-0.162-0.048-0.072-0.02-0.142-0.04-0.217-0.044-0.013 0-0.026-8e-3 -0.042-8e-3 -0.044 0-0.082 0.02-0.124 0.025-0.072 9e-3 -0.142 0.017-0.211 0.042-0.066 0.024-0.122 0.06-0.18 0.096-0.039 0.024-0.083 0.034-0.119 0.064l-42.525 34.964c-0.426 0.351-0.488 0.981-0.137 1.407 0.198 0.241 0.484 0.365 0.773 0.365 0.224 0 0.449-0.074 0.635-0.228l1.888-1.552v13.817h-4.71c-1.263 0-2.29 1.027-2.29 2.289v7.711h59v-50zm-10 8c-1.263 0-2.29 1.027-2.29 2.289v5.711h-1v-15.305l8-6.578v13.883zm-9 8c-1.263 0-2.29 1.027-2.29 2.289v5.422c0 0.159-0.13 0.289-0.29 0.289h-0.71v-15.905l7-5.756v13.661zm-10 8c-1.263 0-2.29 1.027-2.29 2.289v5.422c0 0.159-0.13 0.289-0.29 0.289h-0.71v-15.683l8-6.578v14.261zm-13.29 0.539 8-6.578v14.039h-4.71c-1.263 0-2.29 1.027-2.29 2.289v5.422c0 0.159-0.13 0.289-0.29 0.289h-0.71zm38-32.539h11m-28.5-26.988c-30.647 0-55.49 24.843-55.49 55.49a55.49 55.49 0 1 0 110.98-0.0058c0-30.641-24.849-55.484-55.49-55.484zm0 99.414a43.929 43.929 0 1 1 0-87.853 43.929 43.929 0 1 1 0 87.853z"/>
 </g>
</svg>
