<svg class="icon" width="32px" height="32px" version="1.1" viewBox="0 0 1024 1024" xmlns="http://www.w3.org/2000/svg">
 <g transform="matrix(1.8822 0 0 1.8822 32.269 37.944)"></g>
 <style type="text/css">.st0{fill:#FFFFFF;}</style>
 <style type="text/css">.st0{fill:#FFFFFF;}</style>
 <g transform="matrix(1.9436 0 0 1.9436 14.445 14.445)"></g>
 <g transform="matrix(1.6177 0 0 1.6177 196.16 196.16)">
  <path d="m390.49 254.69-36.272-50.171h-22.807v-55.054h40.467v-74.399h-40.467v-16.463h-16.811v16.463h-238.71v-16.463h-16.812v16.463h-40.467v74.399h40.467v55.054h-22.808l-36.271 50.171v13.829h27.205v63.376h16.81v-63.376h15.064v36.673h16.812v-36.673h238.71v36.673h16.811v-36.673h15.064v63.376h16.81v-63.376h27.205zm-314.6-50.171v-55.054h238.71v55.054zm119.35-315.63c-169.2 0-306.37 137.16-306.37 306.37a306.37 306.37 0 1 0 612.73-0.0319c0-169.17-137.19-306.33-306.37-306.33zm0 548.87a242.54 242.54 0 1 1 0-485.05 242.54 242.54 0 1 1 0 485.05z"/>
 </g>
</svg>
