<svg class="icon" width="32px" height="32px" version="1.1" viewBox="0 0 1024 1024" xmlns="http://www.w3.org/2000/svg">
 <g transform="matrix(1.8822 0 0 1.8822 32.269 37.944)"></g>
 <style type="text/css">.st0{fill:#FFFFFF;}</style>
 <style type="text/css">.st0{fill:#FFFFFF;}</style>
 <g transform="matrix(1.9436 0 0 1.9436 14.445 14.445)"></g>
 <g transform="matrix(1.1231 0 0 1.1231 224.49 224.49)">
  <path d="m461.78 323.12-3.115 3.115v-38.251c0-5.888-4.779-10.667-10.667-10.667s-10.667 4.779-10.667 10.667v38.251l-3.115-3.115c-4.16-4.16-10.923-4.16-15.083 0s-4.16 10.923 0 15.083l21.312 21.312c0.981 0.981 2.176 1.771 3.477 2.325 1.301 0.533 2.688 0.811 4.075 0.811s2.773-0.277 4.075-0.811c1.323-0.533 2.496-1.323 3.477-2.325l21.312-21.312c4.16-4.16 4.16-10.923 0-15.083-4.159-4.16-10.9-4.16-15.081 0zm-99.115-323.12h-298.67c-17.643 0-32 14.357-32 32v448c0 17.643 14.357 32 32 32h298.67c17.643 0 32-14.357 32-32v-448c0-17.643-14.357-32-32-32zm-53.333 309.33c0 17.643-14.357 32-32 32-3.733 0-7.339-0.64-10.667-1.813v97.813c0 17.643-14.357 32-32 32-8.192 0-15.659-3.093-21.333-8.171-5.675 5.077-13.141 8.171-21.333 8.171-17.643 0-32-14.357-32-32v-97.813c-3.328 1.173-6.933 1.813-10.667 1.813-17.643 0-32-14.357-32-32v-106.67c0-29.397 23.936-53.333 53.333-53.333h42.667c-29.397 0-53.333-23.936-53.333-53.333s23.936-53.333 53.333-53.333 53.333 23.935 53.333 53.332-23.936 53.333-53.333 53.333h42.667c29.397 0 53.333 23.936 53.333 53.333zm124.88-120.45 3.115-3.115v38.251c0 5.888 4.779 10.667 10.667 10.667s10.667-4.779 10.667-10.667v-38.251l3.115 3.115c2.091 2.091 4.821 3.115 7.552 3.115s5.461-1.045 7.552-3.115c4.16-4.16 4.16-10.923 0-15.083l-21.312-21.312c-0.981-0.981-2.176-1.771-3.477-2.325-2.603-1.088-5.547-1.088-8.149 0-1.323 0.533-2.496 1.323-3.477 2.325l-21.312 21.312c-4.16 4.16-4.16 10.923 0 15.083 4.158 4.16 10.878 4.16 15.059 0zm-178.22-374.16c-243.72 0-441.28 197.57-441.28 441.28a441.28 441.28 0 1 0 882.56-0.0459c0-243.67-197.61-441.24-441.28-441.24zm0 790.58a349.35 349.35 0 1 1 0-698.65 349.35 349.35 0 1 1 0 698.65z"/>
 </g>
</svg>
