<svg class="icon" width="32px" height="32px" version="1.1" viewBox="0 0 1024 1024" xmlns="http://www.w3.org/2000/svg">
 <g transform="matrix(1.8822 0 0 1.8822 32.269 37.944)"></g>
 <style type="text/css">.st0{fill:#FFFFFF;}</style>
 <style type="text/css">.st0{fill:#FFFFFF;}</style>
 <g transform="matrix(1.9436 0 0 1.9436 14.445 14.445)"></g>
 <path d="m512 200c-41.6 0-78 36.4-78 78s36.4 78 78 78 78-36.4 78-78-36.4-78-78-78zm-182 208v52s104 0 104 104v104c0 104-104 104-104 104v52h364v-52s-104 0-104-104v-208c0-26-26-52-52-52zm182-391.58c-273.71 0-495.6 221.88-495.6 495.6a495.6 495.6 0 1 0 991.19-0.0516c0-273.66-221.93-495.54-495.6-495.54zm0 887.89a392.35 392.35 0 1 1 0-784.64 392.35 392.35 0 1 1 0 784.64z" stroke-width="52"/>
</svg>
