<svg class="icon" width="32px" height="32px" version="1.1" viewBox="0 0 1024 1024" xmlns="http://www.w3.org/2000/svg">
 <g transform="matrix(1.8822 0 0 1.8822 32.269 37.944)"></g>
 <path class="cls-1" d="m408.75 362.44a33.431 33.558 0 0 1-33.431-33.558v-86.916l-23.736-23.491a33.568 33.696 0 1 1 47.472-47.653l33.431 33.558a33.431 33.558 0 0 1 9.6949 23.826v100.68a33.431 33.558 0 0 1-33.431 33.558zm100.29 503.38h-234.02a33.431 33.558 0 0 1-33.431-29.196l-66.862-503.38a33.431 33.558 0 0 1 8.0234-26.511 33.431 33.558 0 0 1 25.407-11.41h367.74a33.431 33.558 0 0 1 25.407 11.41 33.431 33.558 0 0 1 7.6891 26.847l-9.6949 67.117a33.431 33.558 0 0 1-37.777 28.86 33.431 33.558 0 0 1-28.416-37.921l4.346-29.196h-291.18l58.17 436.26h204.6a33.431 33.558 0 0 1 0 67.117zm204.26 0h-185.54a145.09 145.64 0 0 1-145.09-145.31v-74.835a33.431 33.558 0 0 1 66.862 0v74.835a78.228 78.527 0 0 0 78.228 78.191h185.54a78.228 78.527 0 0 0 66.862-39.263 33.546 33.674 0 0 1 58.17 33.558 146.09 146.65 0 0 1-125.03 72.822zm111.32-167.79h-195.57a33.431 33.558 0 0 1 0-67.117h157.79c-20.058-73.157-106.31-100.68-167.15-100.68-60.844 0-146.09 27.518-167.15 100.68h41.454a33.431 33.558 0 0 1 0 67.117h-77.894a33.431 33.558 0 0 1-33.431-33.558c0-132.22 119.68-201.35 237.69-201.35s237.69 69.13 237.69 201.35a33.431 33.558 0 0 1-33.431 33.558zm-5.461-660.08h-610.14c-97.625 0-176.76 79.132-176.76 176.76v610.18c0 97.627 79.132 176.76 176.76 176.76h610.14c97.631 0 176.8-79.136 176.8-176.76v-610.18c0-97.621-79.168-176.76-176.8-176.76zm96.49 786.94c0 53.261-43.206 96.451-96.49 96.451h-610.14c-53.272 0-96.451-43.176-96.451-96.451v-610.18c0-53.273 43.176-96.451 96.451-96.451h610.14c53.284 0 96.49 43.188 96.49 96.451z" stroke-width="33.495"/>
</svg>
