<svg class="icon" width="32px" height="32px" version="1.1" viewBox="0 0 1024 1024" xmlns="http://www.w3.org/2000/svg">
 <g transform="matrix(1.8822 0 0 1.8822 32.269 37.944)"></g>
 <style type="text/css">.st0{fill:#FFFFFF;}</style>
 <style type="text/css">.st0{fill:#FFFFFF;}</style>
 <g transform="matrix(1.9436 0 0 1.9436 14.445 14.445)"></g>
 <g transform="matrix(1.3413 0 0 1.3413 168.63 168.63)">
  <path d="m207.67 152.68a9.685 9.685 0 0 1-9.685 9.685 9.685 9.685 0 0 1-9.685-9.685 9.685 9.685 0 0 1 9.685-9.685 9.685 9.685 0 0 1 9.685 9.685zm265.1 115.16h13.402c14.242 0 25.828-11.586 25.828-25.828 0-6.879-2.681-13.361-7.578-18.281-4.889-4.867-11.371-7.547-18.25-7.547h-14.996c24.733-18.188 40.824-47.475 40.824-80.462 0-55.048-44.786-99.834-99.834-99.834h-386.33c-14.242 0-25.828 11.586-25.828 25.828s11.586 25.828 25.828 25.828h13.408c11.716 30.943 11.716 65.412 0 96.355h-13.408c-14.242 0-25.828 11.586-25.828 25.828s11.586 25.828 25.828 25.828h14.996c-24.736 18.191-40.828 47.48-40.828 80.467 0 26.647 10.385 51.717 29.245 70.592 16.565 16.565 37.932 26.583 60.966 28.771v51.033c0 3.409 1.792 6.567 4.717 8.314 2.928 1.749 6.556 1.83 9.558 0.214l38.596-20.773 38.596 20.773c1.435 0.772 3.013 1.157 4.591 1.157 1.721 0 3.44-0.458 4.968-1.371 2.926-1.749 4.717-4.906 4.717-8.314v-50.571h290.22c14.242 0 25.828-11.586 25.828-25.828 0-6.901-2.686-13.388-7.578-18.28-4.889-4.867-11.371-7.548-18.25-7.548h-13.402c-3.952-10.419-6.618-21.267-7.91-32.36-0.624-5.226-0.94-10.546-0.94-15.809s0.316-10.582 0.943-15.836c1.293-11.079 3.959-21.93 7.909-32.346zm-446.94-51.655c-3.56 0-6.457-2.897-6.457-6.457s2.897-6.457 6.457-6.457h383.35c24.808 0 47.563-13.548 59.385-35.358 10.927-20.156 10.927-44.224 0-64.38-11.823-21.81-34.577-35.358-59.385-35.358h-383.35c-3.56 0-6.457-2.897-6.457-6.457s2.897-6.457 6.457-6.457h386.34c44.367 0 80.463 36.096 80.463 80.463 0 44.35-36.069 80.435-80.413 80.462h-386.39zm138.63-73.189h-97.248c0.226-4.845 0.226-9.697 0-14.541h47.955c5.349 0 9.685-4.337 9.685-9.685 0-5.349-4.337-9.685-9.685-9.685h-50.082c-1.259-7.273-3.009-14.475-5.308-21.538h349.41c17.693 0 33.924 9.664 42.355 25.218 7.794 14.376 7.794 31.541 0 45.918-8.432 15.555-24.662 25.218-42.355 25.218h-349.41c2.297-7.061 4.049-14.262 5.308-21.534h99.376c5.349 0 9.685-4.336 9.685-9.685 0-5.35-4.337-9.686-9.686-9.686zm12.127 307.21-28.91-15.561c-1.433-0.771-3.012-1.157-4.591-1.157s-3.157 0.386-4.591 1.157l-28.91 15.561v-107.54h67.003v107.54zm9.685-126.92h-86.374c-5.349 0-9.685 4.337-9.685 9.685v29.508c-4.218-1.144-8.283-2.839-12.045-5.086-7.456-4.427-13.575-10.795-17.7-18.423-3.804-7.019-5.815-14.957-5.815-22.955 0-8.009 2.011-15.946 5.818-22.96 8.424-15.557 24.653-25.222 42.35-25.222h349.4c-2.299 7.043-4.08 14.242-5.345 21.539h-50.034c-5.349 0-9.685 4.337-9.685 9.685 0 5.349 4.336 9.685 9.685 9.685h47.902c-0.116 2.427-0.19 4.854-0.19 7.272s0.074 4.844 0.19 7.269h-97.194c-5.349 0-9.685 4.336-9.685 9.685s4.337 9.685 9.685 9.685h99.326c1.267 7.296 3.046 14.49 5.344 21.529h-256.26v-21.529h31.639c5.349 0 9.685-4.337 9.685-9.685s-4.337-9.685-9.685-9.685h-41.325zm299.9 60.271c1.721 0 3.349 0.677 4.568 1.889 1.218 1.218 1.889 2.841 1.889 4.568 0 3.56-2.897 6.457-6.457 6.457h-290.22v-12.914zm-383.35-135.09c-24.815 0-47.571 13.553-59.38 35.36-5.339 9.833-8.16 20.964-8.16 32.193 0 11.213 2.82 22.342 8.153 32.178 5.785 10.699 14.376 19.64 24.823 25.843 6.758 4.034 14.222 6.83 21.955 8.302v13.54c-17.85-2.114-34.369-10.069-47.266-22.966-15.202-15.214-23.574-35.422-23.574-56.898 0-44.353 36.07-80.438 80.418-80.466h312.38c0.017 0 0.034-1e-3 0.05-1e-3h73.956c1.721 0 3.35 0.677 4.552 1.874 1.228 1.233 1.905 2.862 1.905 4.583 0 3.56-2.897 6.457-6.457 6.457h-383.35zm388.02-363.43h-469.72c-75.158 0-136.08 60.921-136.08 136.08v469.75c0 75.159 60.921 136.08 136.08 136.08h469.72c75.162 0 136.11-60.924 136.11-136.08v-469.75c0-75.155-60.948-136.08-136.11-136.08zm74.284 605.83c0 41.004-33.263 74.253-74.284 74.253h-469.72c-41.012 0-74.253-33.24-74.253-74.253v-469.75c0-41.012 33.24-74.253 74.253-74.253h469.72c41.021 0 74.284 33.248 74.284 74.253z"/>
 </g>
</svg>
