<svg class="icon" width="32px" height="32px" version="1.1" viewBox="0 0 1024 1024" xmlns="http://www.w3.org/2000/svg">
 <g transform="matrix(1.8822 0 0 1.8822 32.269 37.944)"></g>
 <style type="text/css">.st0{fill:#FFFFFF;}</style>
 <g transform="matrix(1.9687 0 0 1.9687 8.0251 8.0251)"></g>
 <style type="text/css">.st0{fill:#FFFFFF;}</style>
 <g transform="matrix(27.185 0 0 27.185 77.041 22.671)">
  <path d="m29 9h-26c-0.6 0-1 0.4-1 1v16c0 0.6 0.4 1 1 1h26c0.6 0 1-0.4 1-1v-16c0-0.6-0.4-1-1-1zm-14 14h-8c-0.6 0-1-0.4-1-1 0-1.9 1-3.5 2.5-4.3-0.3-0.5-0.5-1.1-0.5-1.7 0-1.7 1.3-3 3-3s3 1.3 3 3c0 0.6-0.2 1.2-0.5 1.7 1.5 0.8 2.5 2.4 2.5 4.3 0 0.6-0.4 1-1 1zm10-2h-3c-0.6 0-1-0.4-1-1s0.4-1 1-1h3c0.6 0 1 0.4 1 1s-0.4 1-1 1zm0-4h-6c-0.6 0-1-0.4-1-1s0.4-1 1-1h6c0.6 0 1 0.4 1 1s-0.4 1-1 1zm2.7365-17.539h-23.475c-3.7561 0-6.8006 3.0446-6.8006 6.8006v23.476c0 3.7561 3.0446 6.8007 6.8006 6.8007h23.475c3.7563 0 6.8022-3.0447 6.8022-6.8006v-23.476c0-3.7559-3.0459-6.8006-6.8022-6.8006zm3.7124 30.277c0 2.0492-1.6623 3.7109-3.7124 3.7109h-23.475c-2.0496 0-3.7109-1.6612-3.7109-3.7109v-23.476c0-2.0496 1.6612-3.7109 3.7109-3.7109h23.475c2.0501 0 3.7124 1.6616 3.7124 3.7109z"/>
 </g>
</svg>
