<svg class="icon" width="32px" height="32px" version="1.1" viewBox="0 0 1024 1024" xmlns="http://www.w3.org/2000/svg">
 <g transform="matrix(1.8822 0 0 1.8822 32.269 37.944)"></g>
 <style type="text/css">.st0{fill:#FFFFFF;}</style>
 <g transform="matrix(28.406 0 0 28.406 121.92 105.44)">
  <path d="m21.237 8.9872h-14.708l5.6444-5.2956c0.2821-0.26461 0.2963-0.70793 0.0319-0.99018l-0.4103-0.43805c-0.2644-0.28225-0.7074-0.29655-0.9895-0.03194l-6.9786 6.5474c-0.06532 0.06129-0.11629 0.13216-0.15275 0.2084h-1.6743c-0.55228 0-1 0.44806-1 1.0008v4.003c0 0.5527 0.44772 1.0008 1 1.0008h0.42519l2.1408 10.058c0.118 0.5544 0.60727 0.9507 1.1737 0.9507h16.519c0.5664 0 1.0557-0.3963 1.1737-0.9507l2.1408-10.058h0.4269c0.5523 0 1-0.4481 1-1.0008v-4.003c0-0.55269-0.4477-1.0008-1-1.0008h-1.7243c-0.0416-0.08062-0.0997-0.15443-0.1737-0.21617l-7.9245-6.6087c-0.297-0.24768-0.7384-0.20752-0.9859 0.0897l-0.3841 0.46128c-0.2475 0.29721-0.2074 0.73894 0.0896 0.98662zm-17.637 2.0016c-0.33137 0-0.6 0.2688-0.6 0.6004v0.8006c0 0.3316 0.26863 0.6005 0.6 0.6005h20.8c0.3314 0 0.6-0.2689 0.6-0.6005v-0.8006c0-0.3316-0.2686-0.6004-0.6-0.6004zm1.0502 4.8494c-0.09278-0.4358 0.23933-0.8464 0.68464-0.8464h17.329c0.4453 0 0.7774 0.4106 0.6847 0.8464l-1.619 7.6057c-0.0688 0.3234-0.3542 0.5546-0.6846 0.5546h-14.091c-0.3304 0-0.6158-0.2312-0.68464-0.5546zm11.462 5.4017c-0.0544 0.3271 0.1664 0.6364 0.4932 0.691l0.7891 0.1316c0.3269 0.0545 0.636-0.1665 0.6905-0.4936l0.7479-4.4909c0.0545-0.3271-0.1663-0.6365-0.4932-0.691l-0.7891-0.1316c-0.3268-0.0545-0.636 0.1665-0.6904 0.4936zm-6.1972 0.329c0.05448 0.3271 0.36365 0.5481 0.69045 0.4936l0.7891-0.1316c0.3269-0.0546 0.5477-0.3639 0.4932-0.691l-0.7478-4.4903c-0.0545-0.3271-0.3636-0.548-0.6905-0.4935l-0.7891 0.1316c-0.32686 0.0545-0.54768 0.3639-0.4932 0.691zm14.631-23.945h-21.479c-3.4368 0-6.2225 2.7858-6.2225 6.2225v21.481c0 3.4368 2.7858 6.2226 6.2225 6.2226h21.479c3.437 0 6.224-2.7859 6.224-6.2225v-21.481c0-3.4366-2.787-6.2225-6.224-6.2225zm3.3968 27.703c0 1.875-1.521 3.3954-3.3968 3.3954h-21.479c-1.8754 0-3.3954-1.52-3.3954-3.3954v-21.481c0-1.8754 1.52-3.3954 3.3954-3.3954h21.479c1.8758 0 3.3968 1.5204 3.3968 3.3954z"/>
 </g>
</svg>
