<svg class="icon" width="32px" height="32px" version="1.1" viewBox="0 0 1024 1024" xmlns="http://www.w3.org/2000/svg">
 <g transform="matrix(1.8822 0 0 1.8822 32.269 37.944)"></g>
 <style type="text/css">.st0{fill:#FFFFFF;}</style>
 <style type="text/css">.st0{fill:#FFFFFF;}</style>
 <g transform="matrix(1.9436 0 0 1.9436 14.445 14.445)"></g>
 <g transform="matrix(37.619 0 0 37.619 137.05 137.06)">
  <path d="m13.435 18.738s0.055-0.163-0.035-0.346c-0.09-0.182-0.201-0.231-0.254-0.264-0.055-0.029-0.109-0.191-0.184-0.283-0.073-0.09-0.18-0.272-0.18-0.272s0.144-0.798 0.236-1.31c0.088-0.508-0.02-1.231-0.057-2.033-0.036-0.797-0.2-1.651-0.236-2.16-0.035-0.51-0.197-1.473-0.344-2.108-0.145-0.637-0.328-0.855-0.51-0.98-0.18-0.128-0.143-0.203-0.163-0.347-0.017-0.145-0.017-0.289 0.055-0.328 0.072-0.035 0.29-0.508 0.29-0.926v-0.674s0.582-0.904 0.765-1.359c0.181-0.455 0.381-0.657 0.399-0.855 0.019-0.199-0.11-0.779-0.31-1.398-0.199-0.618-0.453-0.964-0.58-1.216-0.129-0.256-0.326-0.549-0.326-0.549s0-0.037-0.016-0.076c6e-3 -0.018 0.016-0.041 0.023-0.055 0.042-0.082 0.026-0.177 0.015-0.246-0.015-0.068 0.027-0.084 0.011-0.176-0.011-0.097-0.052-0.193-0.093-0.273-0.041-0.084-0.055-0.096-0.15-0.178-0.096-0.08-0.162-0.136-0.217-0.162-0.057-0.027-0.11-0.111-0.221-0.121-0.106-0.014-0.218-0.043-0.299-0.043-0.082 0-0.367 0.106-0.49 0.164-0.122 0.055-0.162 0.23-0.232 0.312-0.068 0.083-0.068 0.204-0.095 0.272-0.026 0.068 0.014 0.301 0.027 0.397 0.015 0.095 0.138 0.287 0.179 0.341 0.041 0.055 0.23 0.201 0.34 0.216 0.108 0.016 0.218 0.043 0.258 0.057 0.042 0.014 0.07 0.043 0.165 0.025 0.093-0.013 0.147-0.013 0.19-0.026 0.01-4e-3 0.028-0.01 0.051-0.016 0.01 8e-3 0.018 0.02 0.025 0.024 0.072 0.056 0.328 0.253 0.418 0.327 0.092 0.074 0.274 0.562 0.328 0.873 0.055 0.307 0.109 0.891 0.145 1.107 0.037 0.22 0.056 0.364 0.056 0.364s-0.4 0.438-0.548 0.672c-0.143 0.239-0.307 0.418-0.471 0.563s-0.473 0.275-0.473 0.275l-0.201 0.053s-0.199-0.127-0.216-0.273c-0.021-0.143-0.038-0.254-0.038-0.254s0.254-0.055 0.292-0.289c0.036-0.239 0.127-0.219 0.127-0.344 0-0.131-0.017-0.238-0.09-0.33-0.075-0.09 0.108-0.11-0.075-0.254-0.178-0.143-0.237-0.074-0.272-0.236-0.034-0.163-0.016-0.239-0.161-0.239-0.146 0-0.201 0.02-0.308-0.056-0.111-0.069-0.183-0.106-0.331-0.069-0.143 0.036-0.235 0.07-0.326 0.057-0.089-0.02-0.198-0.02-0.236 0.088-0.038 0.111-0.145 0.201-0.145 0.201s-0.145 0.018-0.091 0.11c0.055 0.089 0 0.054-0.054 0.199-0.056 0.144-0.11 0.254-0.037 0.289 0.074 0.037 0.055 0.037 0.019 0.127-0.037 0.093-0.037 0.218 0.018 0.273 0.054 0.057 0.126 0.074 0.074 0.201-0.056 0.127-0.056 0.162 0.017 0.254s0.146 0.145 0.18 0.217c0.038 0.074 0.11 0.131 0.203 0.109 0.089-0.017 0.071-0.07 0.2-0.056l0.127 0.021s0.165 0.326 0.09 0.455c-0.074 0.127-0.582 0.398-0.8 0.452-0.219 0.054-0.29 0.185-0.4 0.437-0.109 0.256-0.09 0.563-0.2 0.854-0.108 0.292-0.289 0.546-0.327 0.927-0.036 0.383-0.126 0.654 0.219 0.637 0.343-0.02 0.544-0.055 0.692-0.112 0.144-0.055 0.196-0.16 0.196-0.16s0.11 0.197-0.035 0.324c-0.146 0.127-0.364 0.564-0.364 1.146 0 0.58 0.019 1.106 0.019 1.106s-0.363-0.127-0.526-0.217c-0.163-0.094-0.327-0.129-0.474-0.037-0.145 0.09-0.198 0.181-0.344 0.164-0.145-0.018-0.09-0.108-0.272 0-0.183 0.107-0.436 0.523-0.583 0.726-0.144 0.2-0.107 0.547-0.107 0.729 0 0.18-0.127 0.342-0.074 0.471 0.056 0.127 0.074 0.509 0.074 0.707 0 0.201 0 0.291 0.091 0.402 0.091 0.109-0.035 0.234 0.017 0.434 0.056 0.199 0.273 0.781 0.311 1.07 0.035 0.293 0.017 0.748 0.089 1.072 0.074 0.33 0.128 0.748 0 0.893-0.127 0.146-0.144 0.146-0.271 0.326-0.13 0.185-0.237 0.237-0.146 0.347 0.09 0.11 0.146 0.238 0.146 0.238h-0.132l0.02 0.797h7.122v-1.125zm-1.686-17.607-8e-3 0.017c-0.074-2e-3 -0.127 4e-3 -0.177 0.057-0.073 0.07-0.237 0.271-0.237 0.271s8e-3 0.021 0.02 0.058c-0.037 0.012-0.072 0.02-0.087 0.02-0.054 0-0.205-0.039-0.272-0.055-0.069-0.013-0.138-0.108-0.192-0.108-0.055 0-0.15-0.041-0.178-0.108-0.027-0.07-0.122-0.181-0.122-0.218v-0.233c0-0.041 0.042-0.22 0.042-0.22s0.08-0.149 0.121-0.176c0.041-0.028 0.179-0.071 0.179-0.071s0.121-0.08 0.202-0.08c0.082 0 0.165 0.016 0.219 0.016 0.055 0 0.216 0.119 0.216 0.119s0.165 0.139 0.191 0.221c0.028 0.08 0.097 0.191 0.097 0.244 0 0.054-0.014 0.246-0.014 0.246zm-2.332 5.521c-0.158 0.112-0.477 0.203-0.636 0.334-0.154 0.133-0.332 0.621-0.332 0.621s0.101-0.521 0.222-0.698c0.121-0.179 0.332-0.201 0.522-0.268 0.189-0.067 0.534-0.354 0.534-0.354s-0.157 0.254-0.31 0.365zm2.1-0.757c-0.199 0.056-0.598 0.101-0.598 0.101s0.477-0.078 0.69-0.369c0.211-0.287 0.344-0.51 0.412-0.601 0.066-0.087 0.377-0.387 0.377-0.387s-0.334 0.443-0.424 0.658c-0.089 0.209-0.256 0.543-0.457 0.598zm-1.55-9.1019c-7.276 0-13.174 5.8982-13.174 13.174a13.174 13.174 0 1 0 26.349-0.00137c0-7.2747-5.8996-13.173-13.174-13.173zm0 23.603a10.43 10.43 0 1 1 0-20.858 10.43 10.43 0 1 1 0 20.858z" fill="#030104"/>
 </g>
</svg>
