<svg class="icon" width="32px" height="32px" version="1.1" viewBox="0 0 1024 1024" xmlns="http://www.w3.org/2000/svg">
 <g transform="matrix(1.8822 0 0 1.8822 32.269 37.944)"></g>
 <style type="text/css">.st0{fill:#FFFFFF;}</style>
 <style type="text/css">.st0{fill:#FFFFFF;}</style>
 <g transform="matrix(2 0 0 2 1.9037e-6 1.9037e-6)"></g>
 <g transform="matrix(1.4396 0 0 1.4396 154.98 154.98)">
  <path d="m368 336h64v16h-64zm0-152h64v16h-64zm-64-32v344h192v-344zm176 328h-160v-160h160zm0-176h-160v-136h160zm-480-152v344h16v-24h256v24h16v-496h-288zm64 304h-16v-104h16zm32 0h-16v-104h16zm32 0h-16v-104h16zm32 0h-16v-104h16zm32 0h-16v-104h16zm-176-440h256v136h-32v-120h-224zm208 32v104h-16v-104zm-32 0v104h-16v-104zm-32 0v104h-16v-104zm-32 0v104h-16v-104zm-32 0v104h-16v-104zm-32 0v104h-16v-104zm-48 0h16v104h-16zm0 120h256v136h-96v-120h-160zm144 32v104h-16v-104zm-32 0v104h-16v-104zm-32 0v104h-16v-104zm-32 0v104h-16v-104zm-48 0h16v104h-16zm0 120h256v136h-64v-120h-192zm0 32h16v104h-16zm457.16-459.65h-450.35c-72.057 0-130.47 58.408-130.47 130.47v450.38c0 72.059 58.408 130.47 130.47 130.47h450.35c72.062 0 130.5-58.411 130.5-130.47v-450.38c0-72.055-58.434-130.47-130.5-130.47zm71.22 580.84c0 39.312-31.891 71.191-71.22 71.191h-450.35c-39.321 0-71.191-31.869-71.191-71.191v-450.38c0-39.321 31.869-71.191 71.191-71.191h450.35c39.329 0 71.22 31.877 71.22 71.191z"/>
 </g>
</svg>
