<svg class="icon" width="32px" height="32px" version="1.1" viewBox="0 0 1024 1024" xmlns="http://www.w3.org/2000/svg">
 <g transform="matrix(1.8822 0 0 1.8822 32.269 37.944)"></g>
 <style type="text/css">.st0{fill:#FFFFFF;}</style>
 <style type="text/css">.st0{fill:#FFFFFF;}</style>
 <g transform="matrix(32 0 0 32 256 256)" fill="none" stroke="currentColor" stroke-linecap="round" stroke-linejoin="round" stroke-width="1.5">
  <g transform="translate(-8.1003 -7.9508)"></g>
 </g>
 <g transform="matrix(2 0 0 2 1.9037e-6 1.9037e-6)">
  <path d="m418.07 0h-324.16c-51.867 0-93.909 42.042-93.909 93.909v324.18c0 51.868 42.042 93.91 93.909 93.91h324.16c51.87 0 93.931-42.044 93.931-93.909v-324.18c0-51.865-42.061-93.909-93.931-93.909zm51.264 418.09c0 28.297-22.955 51.243-51.264 51.243h-324.16c-28.303 0-51.243-22.939-51.243-51.243v-324.18c0-28.303 22.939-51.243 51.243-51.243h324.16c28.309 0 51.264 22.945 51.264 51.243zm-84.394-186.23 19.883-19.883c17.042-17.042 15.622-44.026-1.4202-61.068l-42.606-42.606c-8.5211-8.5211-18.462-12.782-31.244-12.782-11.361 0-22.723 4.2606-31.244 12.782l-18.462 18.462zm-124.98-85.211-151.96 151.96c-2.8404 2.8404-4.2606 5.6807-4.2606 8.5211l-8.5211 93.732c0 4.2606 1.4202 8.5211 4.2606 11.361 2.8404 2.8404 5.6807 4.2606 9.9413 4.2606h1.4202l93.732-8.5211c2.8404 0 7.1009-1.4202 8.5211-4.2606l151.96-151.96z"/>
 </g>
</svg>
