<svg class="icon" width="32px" height="32px" version="1.1" viewBox="0 0 1024 1024" xmlns="http://www.w3.org/2000/svg">
 <g transform="matrix(1.8822 0 0 1.8822 32.269 37.944)"></g>
 <style type="text/css">.st0{fill:#FFFFFF;}</style>
 <style type="text/css">.st0{fill:#FFFFFF;}</style>
 <g transform="matrix(2 0 0 2 1.9037e-6 1.9037e-6)"></g>
 <g transform="matrix(10.572 0 0 10.572 130.82 130.82)">
  <path d="m63.14 33.247h-27.687v-26.42c0-3.765-3.063-6.827-6.829-6.827h-15.737c-3.765 0-6.828 3.063-6.828 6.827v27.86c0 0.247 0.02 0.489 0.045 0.729-0.077 0.266-0.131 0.541-0.131 0.83v5.105c0 0.247 0.03 0.486 0.087 0.716 0.771 6.112 4.62 13.455 10.59 16.583v1.574c-1.858 1.126-3.074 3.16-3.074 5.469 0 3.539 2.879 6.42 6.419 6.42h27.58c3.539 0 6.418-2.881 6.418-6.42 0-3.313-2.521-6.047-5.746-6.384 11.502-2.53 16.434-10.44 17.148-17.63l0.715-5.01c0.122-0.861-0.135-1.733-0.705-2.391-0.569-0.655-1.396-1.031-2.265-1.031zm-50.253-27.247h15.737c0.457 0 0.829 0.371 0.829 0.827v26.42h-17.394v-26.42c0-0.456 0.372-0.827 0.828-0.827zm46.561 34.9c-8e-3 0.046-0.014 0.093-0.018 0.138-0.342 3.566-2.641 11.971-16.596 13.002-1.014 0.074-1.92 0.658-2.408 1.55-0.489 0.891-0.493 1.969-0.012 2.864l2.822 5.244c0.521 0.973 1.537 1.578 2.641 1.578h1.697c0.23 0 0.418 0.188 0.418 0.42 0 0.23-0.188 0.418-0.418 0.418h-27.58c-0.231 0-0.419-0.188-0.419-0.418 0-0.234 0.193-0.381 0.375-0.397 1.533-0.155 2.699-1.445 2.699-2.985v-5.633c0-1.293-0.829-2.441-2.057-2.848-4.506-1.493-8.091-7.819-8.613-12.793-2e-3 -0.021-5e-3 -0.045-8e-3 -0.067v-1.726h47.709zm7.2691-53.274h-61.326c-9.8124 0-17.766 7.9536-17.766 17.766v61.33c0 9.8125 7.9536 17.766 17.766 17.766h61.326c9.8129 0 17.77-7.954 17.77-17.766v-61.33c0-9.812-7.9572-17.766-17.77-17.766zm9.6983 79.096c0 5.3533-4.3427 9.6943-9.6983 9.6943h-61.326c-5.3544 0-9.6943-4.3397-9.6943-9.6943v-61.33c0-5.3544 4.3397-9.6943 9.6943-9.6943h61.326c5.3556 0 9.6983 4.3408 9.6983 9.6943z"/>
 </g>
</svg>
