<svg width="32mm" height="64mm" version="1.1" viewBox="0 0 210 297" xmlns="http://www.w3.org/2000/svg">
 <g transform="matrix(.19343 0 0 .19343 55.203 -11.51)">
  <g id="a">
   <g transform="matrix(22.888 0 0 22.888 -120.85 -153.96)">
    <g id="b">
     <g transform="matrix(.051684 0 0 .051684 3.8141 4.1621)">
      <g transform="matrix(1.2037 0 0 1.2037 -62.149 -53.852)">
       <path d="m88.759 116.33a33.827 33.827 0 0 1 47.832 0l119.61 119.61 119.61-119.61a33.827 33.827 0 0 1 47.832 47.832l-119.61 119.61 119.61 119.61a33.827 33.827 0 0 1-47.832 47.832l-119.61-119.61-119.61 119.61a33.827 33.827 0 0 1-47.832-47.832l119.61-119.61-119.61-119.61a33.827 33.827 0 0 1 0-47.832zm206.23 1140.3a38.992 38.992 0 0 1-38.992 38.992 38.992 38.992 0 0 1-38.992-38.992 38.992 38.992 0 0 1 38.992-38.992 38.992 38.992 0 0 1 38.992 38.992zm-54.426-723.43h30.869v687.23h-30.869z" stroke-width=".52855"/>
      </g>
     </g>
    </g>
   </g>
  </g>
 </g>
</svg>
