<svg class="icon" width="32px" height="32px" version="1.1" viewBox="0 0 1024 1024" xmlns="http://www.w3.org/2000/svg">
 <g transform="matrix(1.8822 0 0 1.8822 32.269 37.944)"></g>
 <style type="text/css">.st0{fill:#FFFFFF;}</style>
 <style type="text/css">.st0{fill:#FFFFFF;}</style>
 <g transform="matrix(1.9436 0 0 1.9436 14.445 14.445)"></g>
 <g transform="matrix(1.1154 0 0 1.1154 244.43 244.43)">
  <path d="m478.41 116.62c-0.368-4.271-3.181-7.94-7.2-9.403-4.029-1.472-8.539-0.47-11.57 2.556l-62.015 62.011-68.749-21.768-21.768-68.748 62.016-62.016c3.035-3.032 4.025-7.543 2.563-11.565-1.477-4.03-5.137-6.837-9.417-7.207-37.663-3.245-74.566 10.202-101.25 36.887-36.542 36.545-46.219 89.911-29.083 135.4-1.873 1.578-3.721 3.25-5.544 5.053l-207.01 195.34c-0.073 0.071-0.145 0.149-0.224 0.219-24.345 24.346-24.345 63.959 0 88.309 24.349 24.344 63.672 24.048 88.013-0.298 0.105-0.098 0.201-0.196 0.297-0.305l193.63-208.62c1.765-1.773 3.404-3.628 4.949-5.532 45.5 17.167 98.9 7.513 135.47-29.056 26.675-26.687 40.131-63.593 36.882-101.25zm-402.43 318.76c-8.971 8.969-23.5 8.963-32.47 0-8.967-8.961-8.967-23.502 0-32.466 8.97-8.963 23.499-8.963 32.47 0 8.967 8.964 8.967 23.505 0 32.466zm163.91-639.81c-245.4 0-444.33 198.93-444.33 444.33a444.33 444.33 0 1 0 888.67-0.0463c0-245.36-198.98-444.29-444.33-444.29zm0 796.05a351.76 351.76 0 1 1 0-703.48 351.76 351.76 0 1 1 0 703.48z"/>
 </g>
</svg>
