<svg width="32mm" height="64mm" version="1.1" viewBox="0 0 210 297" xmlns="http://www.w3.org/2000/svg">
 <g transform="matrix(.19343 0 0 .19343 55.203 -11.51)">
  <g id="a">
   <g transform="matrix(22.888 0 0 22.888 -120.85 -153.96)">
    <g id="b">
     <g transform="matrix(.051684 0 0 .051684 3.8141 4.1621)">
      <g transform="matrix(1.2037 0 0 1.2037 -62.149 -53.852)">
       <path d="m506.43 421.54-214.86-372.14c-15.814-27.391-55.327-27.401-71.147 0l-214.86 372.14c-15.814 27.391 3.934 61.616 35.574 61.616h429.71c31.629 1e-3 51.394-34.214 35.574-61.616zm-231.61-36.502c0 10.394-8.427 18.821-18.821 18.821s-18.821-8.427-18.821-18.821v-11.239c0-10.394 8.427-18.821 18.821-18.821s18.821 8.427 18.821 18.821zm0-73.332c0 10.394-8.427 18.821-18.821 18.821s-18.821-8.427-18.821-18.821v-107.89c0-10.394 8.427-18.821 18.821-18.821s18.821 8.427 18.821 18.821zm20.17 944.94a38.992 38.992 0 0 1-38.992 38.992 38.992 38.992 0 0 1-38.992-38.992 38.992 38.992 0 0 1 38.992-38.992 38.992 38.992 0 0 1 38.992 38.992zm-54.426-723.43h30.869v687.23h-30.869z"/>
      </g>
     </g>
    </g>
   </g>
  </g>
 </g>
</svg>
